<?xml version="1.0" standalone="no"?>
<!DOCTYPE svg PUBLIC "-//W3C//DTD SVG 20010904//EN"
 "http://www.w3.org/TR/2001/REC-SVG-20010904/DTD/svg10.dtd">
<svg version="1.0" xmlns="http://www.w3.org/2000/svg"
 width="2000.000000pt" height="2000.000000pt" viewBox="0 0 2000.000000 2000.000000"
 preserveAspectRatio="xMidYMid meet">
<metadata>
Created by potrace 1.11, written by Peter Selinger 2001-2013
</metadata>
<g transform="translate(0.000000,2000.000000) scale(0.100000,-0.100000)"
fill="#000000" stroke="none">
<path d="M11178 17895 c-2 -2 -57 -6 -123 -9 -66 -4 -151 -8 -190 -11 -38 -2
-115 -7 -170 -10 -55 -3 -131 -8 -170 -10 -325 -22 -2246 -49 -4180 -60 -2803
-15 -4558 -37 -4815 -60 -19 -1 -45 -3 -57 -4 -13 0 -23 -7 -23 -15 0 -18 43
-35 100 -40 60 -5 95 -20 114 -48 16 -22 41 -95 51 -149 10 -51 24 -136 30
-179 25 -186 93 -321 237 -471 124 -130 144 -153 187 -216 27 -40 48 -86 60
-135 11 -41 27 -88 38 -105 104 -174 118 -215 107 -307 -4 -34 -8 -68 -8 -76
0 -21 14 -60 22 -61 52 -5 98 -27 157 -73 50 -39 42 -31 176 -162 266 -258
437 -375 539 -369 19 1 64 16 100 32 114 53 167 52 224 -2 34 -32 126 -206
126 -238 0 -9 4 -18 9 -21 12 -8 51 -156 55 -211 3 -48 -14 -94 -42 -110 -18
-10 -18 -10 -83 -19 -87 -12 -159 -85 -277 -283 -135 -226 -156 -288 -125
-363 35 -87 152 -237 302 -388 112 -113 156 -188 165 -284 24 -238 259 -492
531 -573 84 -25 188 -56 202 -60 10 -3 12 -218 8 -1007 -3 -552 -7 -1597 -10
-2323 -6 -1307 -8 -1641 -20 -3820 -4 -616 -8 -1299 -9 -1517 l-2 -398 5705 0
c3138 0 5708 -3 5712 -7 4 -5 28 -56 52 -114 52 -125 104 -208 147 -241 109
-80 88 -248 -61 -478 -54 -84 -162 -225 -208 -271 -127 -128 -313 -360 -347
-433 -29 -60 -17 -65 196 -90 30 -4 71 -9 90 -11 33 -4 117 -10 315 -20 44 -2
177 -7 295 -10 118 -2 305 -7 416 -11 l200 -5 53 105 c86 170 165 277 231 311
35 18 43 38 27 73 -13 30 -15 33 -59 82 -87 99 -110 260 -36 260 10 0 34 -7
54 -15 47 -20 80 -6 92 38 17 61 -2 123 -59 196 -40 50 -27 64 116 118 35 13
54 27 64 48 16 34 18 140 6 305 -14 187 -10 301 13 354 18 39 26 46 58 52 45
8 60 0 97 -54 22 -33 29 -56 32 -107 2 -35 -1 -79 -6 -97 -16 -50 -22 -98 -12
-98 11 0 64 51 106 102 19 24 58 85 86 135 51 91 91 133 141 148 14 5 66 9
115 10 108 1 150 18 216 87 108 113 176 332 194 631 3 45 7 100 10 122 2 22 7
67 11 100 8 78 29 181 48 236 9 24 16 51 16 60 0 22 -26 42 -59 47 -57 7 -150
68 -264 172 -88 80 -112 79 -119 -5 -6 -67 -22 -88 -61 -77 -77 21 -220 229
-320 467 -24 58 -53 119 -178 384 -33 68 -59 132 -59 143 0 39 33 88 113 170
99 100 109 116 101 165 -5 34 -57 146 -114 248 -27 47 -84 218 -104 312 -9 39
-18 118 -21 175 -13 257 -25 280 -184 357 -96 46 -179 122 -210 193 -58 129
-74 158 -111 201 -58 65 -152 134 -250 181 -85 41 -86 41 -202 41 -110 0 -118
1 -142 24 -15 14 -38 50 -53 80 -15 31 -40 76 -57 101 -43 64 -186 203 -291
284 -167 128 -286 239 -415 387 -59 67 -87 102 -172 219 -50 69 -109 203 -114
260 -10 102 47 253 271 720 174 360 207 462 198 595 -11 166 -7 212 23 271 25
50 49 79 181 223 l42 46 -77 73 c-90 85 -170 141 -302 210 -87 46 -393 172
-451 187 -21 5 -32 -3 -79 -62 -141 -176 -203 -228 -284 -239 -86 -12 -156 35
-214 144 -35 66 -76 183 -91 262 -6 30 -12 64 -14 75 -9 42 -18 102 -22 155
-3 30 -7 73 -10 95 -3 22 -8 60 -10 85 -7 74 -16 130 -36 230 -51 253 -112
353 -353 582 -323 307 -779 771 -917 933 -19 21 -41 46 -49 55 -27 27 -185
223 -227 280 -58 80 -104 165 -109 202 -10 69 -38 141 -76 191 -63 86 -98 168
-103 247 -3 39 -7 100 -10 138 -5 74 -18 124 -64 253 -48 134 -64 279 -65 594
-1 345 9 458 57 615 25 79 8 139 -70 248 -31 42 -59 79 -63 82 -5 3 -23 23
-40 45 -17 22 -67 78 -109 125 -43 47 -92 101 -108 120 -63 72 -179 188 -223
222 -71 56 -124 79 -235 104 -28 6 -431 14 -437 9z"/>
</g>
</svg>
